<svg width="200" height="200" viewBox="0 0 200 200" fill="none" xmlns="http://www.w3.org/2000/svg">
  <circle cx="100" cy="100" r="98" fill="#333333" stroke="#FFFFFF" stroke-width="4"/>
  <path d="M100 120C126.51 120 148 98.51 148 72C148 45.49 126.51 24 100 24C73.49 24 52 45.49 52 72C52 98.51 73.49 120 100 120Z" fill="#666666"/>
  <path d="M167.999 176.879C162.736 159.502 151.257 144.79 135.719 135.226C120.18 125.662 101.571 121.862 83.384 124.578C65.197 127.294 48.727 136.304 37.0905 149.832C25.4546 163.361 19.5087 180.488 20.2999 197.999L20.317 198.879C34.8025 199.599 52.9205 200 99.9995 200C146.08 200 162.319 199.602 167.999 198.879Z" fill="#666666"/>
</svg>
