<?xml version="1.0" encoding="UTF-8"?>
<svg width="200" height="200" viewBox="0 0 200 200" xmlns="http://www.w3.org/2000/svg">
  <!-- Background Circle -->
  <circle cx="100" cy="100" r="100" fill="#1877F2"/>

  <!-- Head Icon -->
  <circle cx="100" cy="80" r="40" fill="#FFFFFF"/>

  <!-- Body Icon -->
  <path d="M100 130C67 130 40 157 40 190V200H160V190C160 157 133 130 100 130Z" fill="#FFFFFF"/>

  <!-- Facebook 'f' Element -->
  <g transform="translate(140, 40) scale(0.4)">
    <path d="M23.4 45.8v-19h6.4l.9-7.4h-7.3v-4.7c0-2.1.6-3.6 3.6-3.6h3.9V4.8c-.7-.1-3-.3-5.8-.3-5.7 0-9.6 3.5-9.6 9.9v5.5h-6.4v7.4h6.4v19h7.9z" fill="#1877F2"/>
    <circle cx="23.4" cy="23.4" r="20" fill="#FFFFFF" stroke="#1877F2" stroke-width="2"/>
  </g>
</svg>
