<?xml version="1.0" encoding="UTF-8"?>
<svg width="200" height="200" viewBox="0 0 200 200" xmlns="http://www.w3.org/2000/svg">
  <!-- Background Circle -->
  <circle cx="100" cy="100" r="100" fill="#24292F"/>

  <!-- Head Icon -->
  <circle cx="100" cy="80" r="40" fill="#FFFFFF"/>

  <!-- Body Icon -->
  <path d="M100 130C67 130 40 157 40 190V200H160V190C160 157 133 130 100 130Z" fill="#FFFFFF"/>

  <!-- GitHub Octocat Icon -->
  <g transform="translate(140, 40) scale(0.25)">
    <path d="M0 0C0 40 25 75 75 75C100 75 100 65 100 65V45C100 35 105 30 105 30C65 30 65 0 105 0C145 0 145 30 105 30C105 30 100 35 100 45V65C100 65 100 75 125 75C175 75 200 40 200 0H0Z" fill="#24292F"/>
    <circle cx="60" cy="35" r="10" fill="white"/>
    <circle cx="140" cy="35" r="10" fill="white"/>
  </g>
</svg>
