<?xml version="1.0" encoding="UTF-8"?>
<svg width="200" height="200" viewBox="0 0 200 200" xmlns="http://www.w3.org/2000/svg">
  <!-- Background Circle -->
  <circle cx="100" cy="100" r="100" fill="#DB4437"/>

  <!-- Head Icon -->
  <circle cx="100" cy="80" r="40" fill="#FFFFFF"/>

  <!-- Body Icon -->
  <path d="M100 130C67 130 40 157 40 190V200H160V190C160 157 133 130 100 130Z" fill="#FFFFFF"/>

  <!-- Google 'G' Element -->
  <g transform="translate(140, 40) scale(0.25)">
    <path d="M40 40 L120 40 A40 40 0 1 1 58 78 L40 96 L40 40" fill="#4285F4"/>
    <path d="M40 96 L58 78 A40 40 0 0 1 120 120 L40 120 L40 96" fill="#34A853"/>
    <path d="M40 120 L120 120 L120 158 A40 40 0 0 1 40 158 L40 120" fill="#FBBC05"/>
    <path d="M120 40 L120 158 A40 40 0 0 1 40 158 L40 160 L0 160 L0 40 L120 40" fill="#EA4335"/>
    <circle cx="80" cy="100" r="30" fill="white"/>
  </g>
</svg>
